<?xml version="1.0" encoding="UTF-8" standalone="no"?>
<svg
   xmlns:dc="http://purl.org/dc/elements/1.1/"
   xmlns:cc="http://creativecommons.org/ns#"
   xmlns:rdf="http://www.w3.org/1999/02/22-rdf-syntax-ns#"
   xmlns:svg="http://www.w3.org/2000/svg"
   xmlns="http://www.w3.org/2000/svg"
   xmlns:sodipodi="http://sodipodi.sourceforge.net/DTD/sodipodi-0.dtd"
   xmlns:inkscape="http://www.inkscape.org/namespaces/inkscape"
   width="50"
   height="50"
   viewBox="0 0 49.999999 49.999996"
   version="1.1"
   id="svg4"
   sodipodi:docname="logo.svg"
   inkscape:version="1.0.2-2 (e86c870879, 2021-01-15)">
  <metadata
     id="metadata10">
    <rdf:RDF>
      <cc:Work
         rdf:about="">
        <dc:format>image/svg+xml</dc:format>
        <dc:type
           rdf:resource="http://purl.org/dc/dcmitype/StillImage" />
        <dc:title></dc:title>
      </cc:Work>
    </rdf:RDF>
  </metadata>
  <defs
     id="defs8" />
  <sodipodi:namedview
     pagecolor="#ffffff"
     bordercolor="#666666"
     borderopacity="1"
     objecttolerance="10"
     gridtolerance="10"
     guidetolerance="10"
     inkscape:pageopacity="0"
     inkscape:pageshadow="2"
     inkscape:window-width="3440"
     inkscape:window-height="1377"
     id="namedview6"
     showgrid="false"
     inkscape:zoom="7.875"
     inkscape:cx="134.24718"
     inkscape:cy="41.738751"
     inkscape:window-x="-8"
     inkscape:window-y="-8"
     inkscape:window-maximized="1"
     inkscape:current-layer="svg4"
     units="px"
     width="50mm"
     fit-margin-top="0"
     fit-margin-left="0"
     fit-margin-right="0"
     fit-margin-bottom="0"
     inkscape:pagecheckerboard="true"
     inkscape:document-rotation="0" />
  <g
     id="g6"
     transform="matrix(0.88812779,0,0,0.89451471,3.8901105,2.9471078)"
     style="fill:#ffffff;fill-opacity:1">
    <path
       d="m 38.986,23.959 c 1.156,-1.734 2.048,-3.478 2.748,-5.164 0.018,-0.038 0.032,-0.075 0.045,-0.114 C 44.521,12 44.145,6.277 44.121,5.977 44.085,5.489 43.697,5.097 43.209,5.054 43.208,5.053 37.348,4.564 30.462,7.403 c -0.021,0.007 -0.039,0.015 -0.06,0.023 -1.692,0.702 -3.443,1.598 -5.188,2.761 -1.513,1.009 -2.843,2.159 -4.04,3.365 -2.083,-0.975 -8.212,-2.834 -14.847,4.745 -0.244,0.279 -0.314,0.669 -0.182,1.016 0.132,0.346 0.444,0.59 0.812,0.636 0.05,0.006 4.982,0.643 8.084,3.745 l 4.513,4.513 -1.612,1.612 c -0.391,0.391 -0.391,1.023 0,1.414 0.195,0.195 0.451,0.293 0.707,0.293 0.256,0 0.512,-0.098 0.707,-0.293 l 1.612,-1.612 4.511,4.512 c 0.044,0.044 0.1,0.065 0.149,0.1 0.034,0.049 0.055,0.104 0.099,0.148 3.089,3.089 3.739,8.036 3.746,8.086 0.046,0.367 0.291,0.68 0.637,0.811 0.115,0.045 0.236,0.066 0.356,0.066 0.238,0 0.473,-0.086 0.658,-0.248 8.036,-7.037 5.461,-13.501 4.58,-15.176 1.178,-1.178 2.298,-2.483 3.282,-3.961 z m 1.466,-7.391 -7.855,-7.854 c 4.225,-1.502 7.859,-1.704 9.556,-1.696 0.001,1.619 -0.195,5.288 -1.701,9.55 z M 19.746,15.091 c -1.838,2.133 -3.251,4.347 -4.293,6.296 -2.167,-1.733 -4.719,-2.625 -6.407,-3.056 4.773,-4.642 8.851,-3.948 10.7,-3.24 z m 8.837,5.501 c -0.391,-0.391 -1.023,-0.391 -1.414,0 L 20.97,26.791 16.969,22.79 c 1.765,-3.415 4.753,-7.871 9.355,-10.939 1.429,-0.953 2.859,-1.71 4.253,-2.327 l 9.068,9.067 c -0.615,1.399 -1.372,2.833 -2.323,4.26 -3.068,4.604 -7.524,7.592 -10.938,9.355 l -4,-4 6.199,-6.199 c 0.391,-0.392 0.391,-1.025 0,-1.415 z m 2.507,19.785 c -0.449,-1.757 -1.399,-4.448 -3.276,-6.67 1.976,-1.058 4.221,-2.493 6.377,-4.367 0.731,1.642 1.855,5.939 -3.101,11.037 z"
       id="path2-6"
       style="fill:#ffffff;fill-opacity:1" />
    <path
       d="m 13.096,30.296 c -1.544,0 -2.997,0.602 -4.089,1.694 -1.099,1.097 -2.571,3.443 -3.502,5.579 -1.341,3.078 -1.436,5.225 -0.28,6.38 0.529,0.529 1.281,0.798 2.233,0.798 3.144,0 8.156,-3.006 9.728,-4.578 1.093,-1.093 1.695,-2.546 1.694,-4.091 0,-1.545 -0.602,-2.997 -1.694,-4.088 -1.093,-1.093 -2.545,-1.695 -4.09,-1.694 z m 2.675,8.459 c -1.332,1.332 -5.861,3.992 -8.313,3.992 -0.392,0 -0.682,-0.075 -0.819,-0.212 -0.375,-0.375 -0.315,-1.838 0.7,-4.167 0.945,-2.168 2.293,-4.176 3.083,-4.964 0.715,-0.715 1.665,-1.108 2.675,-1.108 1.01,0 1.96,0.394 2.676,1.108 0.714,0.714 1.108,1.664 1.108,2.674 -0.001,1.012 -0.395,1.962 -1.11,2.677 z"
       id="path4"
       style="fill:#ffffff;fill-opacity:1" />
  </g>
</svg>
