<?xml version="1.0" encoding="UTF-8" standalone="no"?>
<svg
   xmlns:dc="http://purl.org/dc/elements/1.1/"
   xmlns:cc="http://creativecommons.org/ns#"
   xmlns:rdf="http://www.w3.org/1999/02/22-rdf-syntax-ns#"
   xmlns:svg="http://www.w3.org/2000/svg"
   xmlns="http://www.w3.org/2000/svg"
   xmlns:sodipodi="http://sodipodi.sourceforge.net/DTD/sodipodi-0.dtd"
   xmlns:inkscape="http://www.inkscape.org/namespaces/inkscape"
   width="50"
   height="40"
   viewBox="0 0 49.999999 39.999997"
   version="1.1"
   id="svg4"
   sodipodi:docname="logo.svg"
   inkscape:version="1.0.2-2 (e86c870879, 2021-01-15)">
  <metadata
     id="metadata10">
    <rdf:RDF>
      <cc:Work
         rdf:about="">
        <dc:format>image/svg+xml</dc:format>
        <dc:type
           rdf:resource="http://purl.org/dc/dcmitype/StillImage" />
        <dc:title></dc:title>
      </cc:Work>
    </rdf:RDF>
  </metadata>
  <defs
     id="defs8" />
  <sodipodi:namedview
     pagecolor="#ffffff"
     bordercolor="#666666"
     borderopacity="1"
     objecttolerance="10"
     gridtolerance="10"
     guidetolerance="10"
     inkscape:pageopacity="0"
     inkscape:pageshadow="2"
     inkscape:window-width="3440"
     inkscape:window-height="1377"
     id="namedview6"
     showgrid="false"
     inkscape:zoom="7.875"
     inkscape:cx="134.24718"
     inkscape:cy="41.738751"
     inkscape:window-x="-8"
     inkscape:window-y="-8"
     inkscape:window-maximized="1"
     inkscape:current-layer="svg4"
     units="px"
     width="50mm"
     fit-margin-top="0"
     fit-margin-left="0"
     fit-margin-right="0"
     fit-margin-bottom="0"
     inkscape:pagecheckerboard="true" />
  <path
     d="m 49.135282,7.6296609 c -0.01661,0 -0.02418,-0.010613 -0.03021,-0.010613 -0.01661,0 -0.03173,0.010613 -0.04834,0.023359 C 18.583414,11.955186 4.2637346,30.578089 0.88888888,35.160557 L 1.3375591,36.154343 H 6.662685 C 20.501969,16.590739 39.204114,10.097143 49.096006,7.9630469 l 0.0076,0.010615 c 0.006,0 0.0136,-0.023358 0.02264,-0.023358 0.0559,-0.010615 0.102726,-0.076446 0.102726,-0.1635078 0,-0.078568 -0.04079,-0.1337791 -0.09517,-0.1550139 z M 1.6517793,17.660972 1.3300057,18.512486 7.8682026,25.214182 c 1.3218398,-1.085096 2.6754034,-2.089501 4.0531384,-3.04082 l -4.3824653,-4.51239 z m 14.5326837,8.888879 c -1.086175,1.12969 -2.187456,2.325209 -3.376357,3.728827 l 5.745094,5.871417 h 5.956587 l 0.252283,-0.762328 z"
     id="path2"
     style="fill:#ffffff;fill-opacity:1;stroke-width:1.79106" />
</svg>
